<svg xmlns="http://www.w3.org/2000/svg" version="1.1" viewBox="-5.0 -10.0 110.0 110.0">
 <path d="m89.062 9.375h-78.125c-4.3086 0-7.8125 3.5039-7.8125 7.8125v10.938h93.75v-10.938c0-4.3086-3.5039-7.8125-7.8125-7.8125zm-75 14.062c-1.7227 0-3.125-1.4023-3.125-3.125s1.4023-3.125 3.125-3.125 3.125 1.4023 3.125 3.125-1.4023 3.125-3.125 3.125zm9.375 0c-1.7227 0-3.125-1.4023-3.125-3.125s1.4023-3.125 3.125-3.125 3.125 1.4023 3.125 3.125-1.4023 3.125-3.125 3.125zm9.375 0c-1.7227 0-3.125-1.4023-3.125-3.125s1.4023-3.125 3.125-3.125 3.125 1.4023 3.125 3.125-1.4023 3.125-3.125 3.125zm-29.688 59.375c0 4.3086 3.5039 7.8125 7.8125 7.8125h78.125c4.3086 0 7.8125-3.5039 7.8125-7.8125v-51.562h-93.75zm35.984-35.504c0.015625-0.070313 0.007813-0.14453 0.035156-0.21484 0.007813-0.015625 0.019531-0.027344 0.027344-0.042969 0.042969-0.10547 0.10938-0.19141 0.17578-0.28125 0.054688-0.078125 0.097656-0.16016 0.16016-0.22656 0.0625-0.0625 0.14063-0.10156 0.21484-0.15234 0.09375-0.066406 0.18359-0.13672 0.29297-0.18359 0.015625-0.007812 0.027344-0.019531 0.042969-0.027343 0.070312-0.027344 0.14453-0.019532 0.21875-0.035157 0.10938-0.023437 0.21484-0.054687 0.32812-0.054687s0.22266 0.027344 0.33203 0.054687c0.074219 0.015625 0.14453 0.007813 0.21875 0.035157l17.676 6.6289c0.054688 0.019531 0.089844 0.0625 0.14062 0.085937 0.097656 0.046875 0.18359 0.10156 0.26953 0.16797 0.085937 0.066406 0.15625 0.14062 0.22266 0.22266 0.035156 0.042969 0.085937 0.070313 0.12109 0.11719 0.027343 0.039062 0.03125 0.085937 0.054687 0.125 0.039063 0.074218 0.070313 0.14453 0.097656 0.22266 0.039063 0.10938 0.066407 0.21484 0.078125 0.32812 0.007813 0.074219 0.015625 0.14844 0.015625 0.22266-0.003906 0.12891-0.027343 0.25-0.058593 0.375-0.011719 0.046875-0.003907 0.09375-0.023438 0.14062-0.007812 0.019532-0.023438 0.027344-0.027344 0.046875-0.078125 0.1875-0.17969 0.36328-0.32812 0.50781-0.070312 0.070312-0.15234 0.13672-0.23828 0.19531l-3.7188 2.4766 6.1641 6.1641c0.60938 0.60938 0.60938 1.5977 0 2.2109l-2.2109 2.2109c-0.60938 0.60938-1.5977 0.60938-2.2109 0l-6.1641-6.1641-2.4766 3.7188c-0.058593 0.085937-0.125 0.16797-0.19531 0.23828-0.14844 0.14844-0.32422 0.25-0.50781 0.32812-0.015626 0.007812-0.027344 0.023438-0.046876 0.027344-0.046874 0.015625-0.09375 0.011718-0.14062 0.023437-0.125 0.035157-0.24609 0.058594-0.375 0.058594-0.078126 0-0.14844-0.003906-0.22266-0.015625-0.11328-0.015625-0.21875-0.039062-0.32812-0.078125-0.078125-0.027344-0.14844-0.058594-0.22266-0.097656-0.042969-0.023438-0.085938-0.027344-0.125-0.054688-0.046875-0.03125-0.074219-0.082031-0.11719-0.12109-0.082031-0.066407-0.15625-0.13672-0.22266-0.22266-0.066406-0.085937-0.12109-0.17188-0.16797-0.26953-0.023438-0.050781-0.066407-0.085938-0.085938-0.14062l-6.6367-17.668c-0.027343-0.074218-0.019531-0.14453-0.035156-0.21875-0.023437-0.10938-0.054687-0.21484-0.054687-0.32812 0-0.11719 0.03125-0.22656 0.054687-0.33594z"/>
</svg>