<svg xmlns="http://www.w3.org/2000/svg" version="1.1" viewBox="-5.0 -10.0 110.0 110.0">
 <path d="m90.625 73.438h-16.766c-3.3438-1.9375-6.4688-4.4062-6.8906-5.4531 0.32812-0.51562 0.32812-1.1719 0-1.6875-0.40234-0.58203-1.1484-0.81641-1.8125-0.57812-3.0156 1.0781-4.9219 2.25-5.6875 3.4844-1.2109-0.20312-2.3906-0.55469-3.5156-1.0469-0.41797-0.50391-1.1094-0.69531-1.7266-0.47656-0.61719 0.22266-1.0352 0.80469-1.0391 1.4609 0.09375 1.625 0.78906 3.1562 1.9531 4.2969h-3.5781v9.375h39.062c2.5898 0 4.6875-2.0977 4.6875-4.6875s-2.0977-4.6875-4.6875-4.6875zm-28.797 0c-0.097656-0.058594-0.20312-0.10156-0.3125-0.125-0.98828-0.21484-1.9414-0.57422-2.8281-1.0625l0.9375 0.1875c0.69922 0.13672 1.4219-0.074219 1.9375-0.5625 0.34375-0.3125 0.55469-0.74219 0.59375-1.2031 0.62891-0.51562 1.332-0.94141 2.0781-1.2656 1.0234 1.582 2.3438 2.9531 3.8906 4.0312zm8.4844 17.188c0 2.5898-2.0977 4.6875-4.6875 4.6875h-31.25c-2.5898 0-4.6875-2.0977-4.6875-4.6875s2.0977-4.6875 4.6875-4.6875h31.25c2.5898 0 4.6875 2.0977 4.6875 4.6875zm-21.875-17.188h-1.1406c-3.3438-1.9375-6.4688-4.4062-6.8906-5.4531 0.32812-0.51562 0.32812-1.1719 0-1.6875-0.40234-0.58203-1.1484-0.81641-1.8125-0.57812-3.0156 1.0781-4.9219 2.25-5.6875 3.4844-1.2109-0.20312-2.3906-0.55469-3.5156-1.0469-0.41797-0.50391-1.1094-0.69531-1.7266-0.47656-0.61719 0.22266-1.0352 0.80469-1.0391 1.4609 0.09375 1.625 0.78906 3.1562 1.9531 4.2969h-19.203c-2.5898 0-4.6875 2.0977-4.6875 4.6875s2.0977 4.6875 4.6875 4.6875h39.062zm-13.172 0c-0.097656-0.058594-0.20312-0.10156-0.3125-0.125-0.98828-0.21484-1.9414-0.57422-2.8281-1.0625l0.9375 0.1875c0.69922 0.13672 1.4219-0.074219 1.9375-0.5625 0.34375-0.3125 0.55469-0.74219 0.59375-1.2031 0.62891-0.51562 1.332-0.94141 2.0781-1.2656 1.0234 1.582 2.3438 2.9531 3.8906 4.0312zm-27.453-50c0-0.86328 0.69922-1.5625 1.5625-1.5625h81.25c0.86328 0 1.5625 0.69922 1.5625 1.5625s-0.69922 1.5625-1.5625 1.5625h-81.25c-0.86328 0-1.5625-0.69922-1.5625-1.5625zm74.266-4.6875h-64.203c2.875-3.9258 7.4453-6.2461 12.312-6.25h14.375l-2.2656-5.6719c-0.19141-0.48047-0.13281-1.0234 0.15625-1.4531 0.29297-0.42969 0.77734-0.6875 1.2969-0.6875h14.062c0.51953 0 1.0039 0.25781 1.2969 0.6875 0.28906 0.42969 0.34766 0.97266 0.15625 1.4531l-2.2656 5.6719h12.812c4.8672 0.003906 9.4375 2.3242 12.312 6.25zm-66.453 24.656v-15.281h68.75v15.281c-0.003906 5.0625-2.0156 9.918-5.5977 13.496-3.5781 3.582-8.4336 5.5938-13.496 5.5977h-30.562c-5.0625-0.003906-9.918-2.0156-13.496-5.5977-3.582-3.5781-5.5938-8.4336-5.5977-13.496z"/>
</svg>