<svg xmlns="http://www.w3.org/2000/svg" version="1.1" viewBox="-5.0 -10.0 110.0 110.0">
 <path d="m88.699 12.418c-2.9297-2.9258-7.6758-2.9258-10.605 0l-26.516 26.516 7.0703 7.0703c10.086-8.9531 19.301-13.793 29.895-23.148 3.1055-2.7422 3.0859-7.5117 0.16016-10.441zm-38.891 28.285-26.504 26.504c-1.9609 1.9609-5 5.2695-6.5898 7.5352-2.5547 3.6445-4.8125 7.5859-7.0703 11.531-1.2422 2.1719-0.21875 3.9062 2.2344 3.418 5.8594-1.1602 17.004-4.9336 30.855-17.172 9.5273-8.418 14.492-13.523 16.695-16.695 1.457-2.0977-0.60156-6.1016-2.5547-8.0547z"/>
</svg>