<svg version="1.2" xmlns="http://www.w3.org/2000/svg" viewBox="0 0 110 110" width="110" height="110"><style></style><path  d="m94.1 14.4h-78.2c-4.3 0-7.8 3.5-7.8 7.8v10.9h93.8v-10.9c0-4.3-3.5-7.8-7.8-7.8zm-75 14c-1.8 0-3.2-1.4-3.2-3.1 0-1.7 1.4-3.1 3.2-3.1 1.7 0 3.1 1.4 3.1 3.1 0 1.7-1.4 3.1-3.1 3.1zm9.3 0c-1.7 0-3.1-1.4-3.1-3.1 0-1.7 1.4-3.1 3.1-3.1 1.8 0 3.2 1.4 3.2 3.1 0 1.7-1.4 3.1-3.2 3.1zm9.4 0c-1.7 0-3.1-1.4-3.1-3.1 0-1.7 1.4-3.1 3.1-3.1 1.7 0 3.1 1.4 3.1 3.1 0 1.7-1.4 3.1-3.1 3.1zm-29.7 59.4c0 4.3 3.5 7.8 7.8 7.8h78.2c4.3 0 7.8-3.5 7.8-7.8v-51.5h-93.8zm36-35.6q0-0.1 0-0.2 0.1 0 0.1 0 0-0.2 0.1-0.3 0.1-0.1 0.2-0.2 0.1-0.1 0.2-0.2 0.2-0.1 0.3-0.2 0 0 0.1 0 0.1 0 0.2 0 0.1-0.1 0.3-0.1 0.2 0 0.3 0.1 0.1 0 0.3 0l17.6 6.6q0.1 0.1 0.2 0.1 0.1 0.1 0.2 0.2 0.2 0.1 0.3 0.2 0 0.1 0.1 0.1 0 0.1 0 0.2 0.1 0.1 0.1 0.2 0.1 0.1 0.1 0.3 0 0.1 0 0.2 0 0.2 0 0.4 0 0.1-0.1 0.2 0 0 0 0-0.1 0.3-0.3 0.5-0.1 0.1-0.2 0.2l-3.8 2.5 6.2 6.1c0.6 0.7 0.6 1.6 0 2.3l-2.2 2.2c-0.6 0.6-1.6 0.6-2.2 0l-6.2-6.2-2.5 3.7q-0.1 0.2-0.2 0.3-0.2 0.2-0.5 0.3 0 0 0 0-0.1 0-0.2 0-0.1 0.1-0.3 0.1-0.1 0-0.3 0-0.1 0-0.3-0.1-0.1 0-0.2-0.1-0.1 0-0.1 0-0.1-0.1-0.1-0.2-0.2-0.1-0.3-0.2-0.1-0.1-0.1-0.3-0.1 0-0.1-0.1l-6.7-17.7q0-0.1 0-0.2 0-0.2 0-0.3 0-0.2 0-0.4z"/></svg>