<svg xmlns="http://www.w3.org/2000/svg" version="1.1" viewBox="-5.0 -10.0 110.0 110.0">
 <path d="m87.82 72.551-4.6094-16.57c-0.44141-1.5586-2.0195-2.6602-3.8516-2.6719l0.12109-0.51953h1.3516c1.2617 0 2.4219-0.55078 3.1094-1.4609 0.57812-0.76172 0.76172-1.6992 0.51172-2.5898l-4.1914-15.07c-0.41016-1.4688-1.8984-2.4883-3.6211-2.4883h-4.6211l0.28906-1.5312h0.78125c0.94141 0 1.8086-0.42188 2.3906-1.1484 0.57812-0.73047 0.78906-1.6719 0.57812-2.5781l-3.1406-13.559c-0.32812-1.3906-1.5391-2.3594-2.9688-2.3594l-39.898-0.003906c-1.4297 0-2.6484 0.96875-2.9688 2.3594l-3.1406 13.559c-0.21094 0.91016 0 1.8516 0.57812 2.5781 0.57812 0.73047 1.4492 1.1484 2.3906 1.1484h0.17188l0.28906 1.5312h-4.0117c-1.7188 0-3.2109 1.0312-3.6211 2.4883l-4.1914 15.07c-0.25 0.89062-0.070313 1.8281 0.51172 2.5898 0.69141 0.91016 1.8516 1.4609 3.1094 1.4609h0.53125l0.14062 0.60156c-1.4688 0.28125-2.6719 1.2617-3.0508 2.5898l-4.6094 16.57c-0.26953 0.94922-0.070313 1.9609 0.55078 2.7695 0.73828 0.98047 1.9883 1.5586 3.3398 1.5586h0.67188l1.8984 8.2812c0.64062 2.8008 3.5312 4.8398 6.8789 4.8398h48.059c3.3516 0 6.2383-2.0391 6.8789-4.8398l1.8984-8.2812h1.5703c1.3516 0 2.6016-0.57812 3.3398-1.5586 0.62109-0.80859 0.82031-1.8203 0.55078-2.7695zm-58.789-59.742c0.10938-0.48047 0.53125-0.80859 1.0195-0.80859h39.898c0.48828 0 0.91016 0.32812 1.0195 0.80859l1.8711 8.0898h-45.68zm-2.1211 14.84c-0.32031 0-0.62109-0.14063-0.82031-0.39063-0.19922-0.25-0.26953-0.57812-0.19922-0.89062l0.80078-3.4688h46.621l0.80078 3.4688c0.070313 0.30859 0 0.64062-0.19922 0.89062-0.19922 0.25-0.5 0.39063-0.82031 0.39063zm28.449 2-2.4414 8.7383h-19.578c-1.4883 0-2.7617-1.0586-3.0391-2.5195l-1.1914-6.2188zm-33.688 4.5625c0.16016-0.58984 0.89062-1.0312 1.6914-1.0312h4.3906l0.58984 3.0703c0.44922 2.3984 2.5586 4.1406 5 4.1406h32.711c2.4414 0 4.5391-1.7383 5-4.1406l0.57812-3.0703h5.0117c0.80078 0 1.5312 0.44141 1.6992 1.0312l2.5195 9.0898h-61.723zm-2.5 16.578c-0.62109 0-1.2109-0.26172-1.5195-0.67187-0.14062-0.17969-0.28125-0.48047-0.17969-0.85156l1.1094-3.9688h62.84l1.1094 3.9805c0.10156 0.35938-0.039062 0.66016-0.17969 0.83984-0.30859 0.41016-0.89062 0.67187-1.5195 0.67187zm38.348 2-3.3281 9.9219h-26.441c-2.1602 0-4-1.2305-4.3906-2.9219l-1.6094-7zm-38.801 3.7305c0.17188-0.60938 0.80078-1.0586 1.5703-1.1797l1.1211 4.8984c0.58984 2.5898 3.2617 4.4688 6.3398 4.4688h43.68c3.0781 0 5.75-1.8789 6.3398-4.4688l1.1289-4.9414h0.42187c0.94141 0 1.7617 0.51172 1.9609 1.2188l2.8203 10.121-68.203 0.003906zm35.973 31.48h-29.172c-2.4219 0-4.5-1.3789-4.9414-3.2891l-1.7891-7.8281h39.629l-3.7305 11.121zm30.988-13.891c-0.37109 0.48828-1.0195 0.76953-1.75 0.76953h-24.18c-0.011719 0.011719-0.011719 0-0.019531 0h-43.66c-0.73047 0-1.3789-0.28125-1.75-0.76953-0.16016-0.21875-0.33984-0.57812-0.21094-1.0312l1.2383-4.4414h69.238c0.019531 0 0.039062-0.019531 0.058593-0.019531l1.2383 4.4688c0.12891 0.44141-0.050781 0.80078-0.21094 1.0195z"/>
</svg>